<?xml version="1.0" encoding="utf-8"?>
<!-- Generator: Adobe Illustrator 24.0.0, SVG Export Plug-In . SVG Version: 6.00 Build 0)  -->
<svg version="1.1" id="Layer_1" xmlns="http://www.w3.org/2000/svg" xmlns:xlink="http://www.w3.org/1999/xlink" x="0px" y="0px"
	 viewBox="0 0 40 40" style="enable-background:new 0 0 40 40;" xml:space="preserve">
<path d="M20,2.8C10.5,2.8,2.8,10.5,2.7,20S10.4,37.2,20,37.3c9.5,0,17.2-7.7,17.3-17.2c0-4.6-1.8-9-5-12.2C28.9,4.6,24.6,2.8,20,2.8
	z M20,34.6c-8.1,0-14.6-6.5-14.6-14.6c0-8.1,6.5-14.6,14.6-14.6c8.1,0,14.6,6.5,14.6,14.6c0,3.9-1.5,7.6-4.3,10.3
	C27.6,33,23.9,34.6,20,34.6z M27.9,20c0,0.7-0.6,1.3-1.3,1.3h-10l3,3c0.5,0.5,0.5,1.4,0,1.9s-1.4,0.5-1.9,0l-5.3-5.3
	c-0.5-0.5-0.5-1.4,0-1.9c0,0,0,0,0,0l5.3-5.3c0.5-0.5,1.4-0.5,1.9,0c0.5,0.5,0.5,1.4,0,1.9l-3,3h10C27.4,18.7,27.9,19.3,27.9,20
	L27.9,20z"/>
</svg>
