<?xml version="1.0" encoding="utf-8"?>
<!-- Generator: Adobe Illustrator 24.0.0, SVG Export Plug-In . SVG Version: 6.00 Build 0)  -->
<svg version="1.1" id="Layer_1" xmlns="http://www.w3.org/2000/svg" xmlns:xlink="http://www.w3.org/1999/xlink" x="0px" y="0px"
	 viewBox="0 0 14 14" style="enable-background:new 0 0 14 14;" xml:space="preserve">
<style type="text/css">
	.st0{fill-rule:evenodd;clip-rule:evenodd;fill:#3C2F41;}
	.st1{fill:#CB1B45;}
</style>
<path class="st0" d="M4.2,2.2C3.9,1.6,3.7,1.7,3.5,1.7c-0.2,0-0.4,0-0.5,0C2.8,1.7,2.5,1.7,2.2,2c-0.3,0.3-1,1-1,2.4
	c0,1.4,1,2.7,1.2,2.9s2,3,4.8,4.3c0.7,0.3,1.2,0.5,1.6,0.6c0.7,0.2,1.3,0.2,1.8,0.1c0.5-0.1,1.7-0.7,1.9-1.3
	c0.2-0.7,0.2-1.2,0.2-1.3c-0.1-0.1-0.3-0.2-0.5-0.3c-0.3-0.1-1.7-0.8-1.9-0.9C10,8.2,9.8,8.2,9.6,8.5C9.4,8.8,8.9,9.4,8.7,9.6
	C8.5,9.8,8.4,9.8,8.1,9.7C7.8,9.5,6.9,9.2,5.8,8.3C5,7.5,4.4,6.6,4.2,6.3C4.1,6,4.2,5.9,4.4,5.7c0.1-0.1,0.3-0.3,0.4-0.5
	C4.9,5.1,5,4.9,5.1,4.8c0.1-0.2,0-0.4,0-0.5C5,4.1,4.4,2.7,4.2,2.2z"/>
</svg>
