<svg xmlns="http://www.w3.org/2000/svg" width="122.072" height="121.768" viewBox="0 0 122.072 121.768"><path d="M55.751,78.583,40.835,63.666a4.889,4.889,0,0,0-3.349-1.522,4.739,4.739,0,0,0-3.349,8.219l18.57,18.874a4.227,4.227,0,0,0,3.044,1.522A3.371,3.371,0,0,0,58.8,89.238l36.53-36.53a4.578,4.578,0,0,0,1.218-3.349,5.238,5.238,0,0,0-4.871-4.871A6.325,6.325,0,0,0,88.02,46.01Zm9.133,47.185A62.651,62.651,0,0,1,40.835,121.2a60.148,60.148,0,0,1-19.483-12.786A57.066,57.066,0,0,1,8.566,88.933,63.772,63.772,0,0,1,4,64.884,63.772,63.772,0,0,1,8.566,40.835a56.533,56.533,0,0,1,13.09-19.178A62.634,62.634,0,0,1,41.139,8.566C48.75,5.218,56.36,4,64.884,4A58.6,58.6,0,0,1,88.933,8.871a60.976,60.976,0,0,1,19.483,13.09,64.939,64.939,0,0,1,13.09,19.178c3.349,7.306,4.566,15.221,4.566,24.049a62.652,62.652,0,0,1-4.566,24.049,60.976,60.976,0,0,1-13.09,19.483,57.066,57.066,0,0,1-19.483,12.786A70.12,70.12,0,0,1,64.884,125.768Zm0-9.133c14.612,0,27.093-4.871,36.835-14.917a51.011,51.011,0,0,0,14.917-36.835c0-14.612-4.871-27.093-14.917-36.835A51.011,51.011,0,0,0,64.884,13.133c-14.612,0-27.093,4.871-36.835,14.917A51.011,51.011,0,0,0,13.133,64.884c0,14.612,4.871,27.093,14.917,36.835A51.011,51.011,0,0,0,64.884,116.635Z" transform="translate(-4 -4)" fill="#00630a"/></svg>