<?xml version="1.0" encoding="utf-8"?>
<!-- Generator: Adobe Illustrator 24.0.0, SVG Export Plug-In . SVG Version: 6.00 Build 0)  -->
<svg version="1.1" id="Layer_1" xmlns="http://www.w3.org/2000/svg" xmlns:xlink="http://www.w3.org/1999/xlink" x="0px" y="0px"
	 viewBox="0 0 48 48" style="enable-background:new 0 0 48 48;" xml:space="preserve">
<style type="text/css">
	.st0{fill:#FB1F4C;}
</style>
<path class="st0" d="M13.1,42c-0.8,0-1.5-0.3-2.1-0.9c-0.6-0.6-0.9-1.3-0.9-2.1V10.5H9.5c-0.4,0-0.8-0.1-1.1-0.4C8.1,9.8,8,9.4,8,9
	c0-0.4,0.1-0.8,0.4-1.1c0.3-0.3,0.6-0.4,1.1-0.4h7.9c0-0.4,0.1-0.8,0.4-1.1C18.1,6.1,18.5,6,18.9,6h10.2c0.4,0,0.8,0.1,1.1,0.4
	s0.4,0.6,0.4,1.1h7.9c0.4,0,0.8,0.1,1.1,0.4C39.9,8.2,40,8.6,40,9c0,0.4-0.1,0.8-0.4,1.1c-0.3,0.3-0.6,0.4-1.1,0.4H38V39
	c0,0.8-0.3,1.5-0.9,2.1C36.5,41.7,35.8,42,35,42H13.1z M35,10.5H13.1V39H35V10.5z M19.9,34.7c0.4,0,0.8-0.1,1.1-0.4
	c0.3-0.3,0.4-0.6,0.4-1.1v-17c0-0.4-0.1-0.8-0.4-1.1c-0.3-0.3-0.6-0.4-1.1-0.4c-0.4,0-0.8,0.1-1.1,0.4c-0.3,0.3-0.4,0.6-0.4,1.1v17
	c0,0.4,0.1,0.8,0.4,1.1C19.1,34.6,19.4,34.7,19.9,34.7z M28.2,34.7c0.4,0,0.8-0.1,1.1-0.4c0.3-0.3,0.4-0.6,0.4-1.1v-17
	c0-0.4-0.1-0.8-0.4-1.1c-0.3-0.3-0.6-0.4-1.1-0.4c-0.4,0-0.8,0.1-1.1,0.4c-0.3,0.3-0.4,0.6-0.4,1.1v17c0,0.4,0.1,0.8,0.4,1.1
	C27.4,34.6,27.7,34.7,28.2,34.7z M13.1,10.5V39V10.5z"/>
</svg>
