<?xml version="1.0" encoding="utf-8"?>
<!-- Generator: Adobe Illustrator 24.0.0, SVG Export Plug-In . SVG Version: 6.00 Build 0)  -->
<svg version="1.1" id="Layer_1" xmlns="http://www.w3.org/2000/svg" xmlns:xlink="http://www.w3.org/1999/xlink" x="0px" y="0px"
	 viewBox="0 0 56 62.1" style="enable-background:new 0 0 56 62.1;" xml:space="preserve">
<style type="text/css">
	.st0{fill:#FFFFFF;}
</style>
<path d="M0,19c0-2.1,1.4-4.6,3.2-5.7L24.4,0.8c1.8-1,4.7-1.1,6.5-0.1l21.5,12.1c1.8,1,3.3,3.5,3.3,5.6L56,43.1
	c0,2.1-1.4,4.6-3.2,5.7L31.5,61.3c-1.8,1-4.7,1.1-6.5,0.1L3.5,49.3c-1.8-1-3.3-3.5-3.3-5.6L0,19z"/>
<g>
	<g>
		<path class="st0" d="M48.7,37.2c0,0.5-0.5,0.9-1.1,0.9H8.3c-0.6,0-1.1-0.4-1.1-0.9s0.5-0.9,1.1-0.9h39.3
			C48.2,36.3,48.7,36.7,48.7,37.2z"/>
	</g>
	<g>
		<path class="st0" d="M40.4,40.1c0,0.5-0.5,0.9-1,0.9H16.6c-0.6,0-1-0.4-1-0.9s0.5-0.9,1-0.9h22.8C39.9,39.2,40.4,39.6,40.4,40.1z"
			/>
	</g>
	<path class="st0" d="M43.3,35.2H12.6c0-8,6.1-14.6,14-15.3c0-0.7,0.6-1.3,1.3-1.3c0.7,0,1.3,0.6,1.3,1.3
		C37.2,20.6,43.3,27.2,43.3,35.2z"/>
</g>
</svg>
