<?xml version="1.0" encoding="utf-8"?>
<!-- Generator: Adobe Illustrator 24.0.0, SVG Export Plug-In . SVG Version: 6.00 Build 0)  -->
<svg version="1.1" id="Layer_1" xmlns="http://www.w3.org/2000/svg" xmlns:xlink="http://www.w3.org/1999/xlink" x="0px" y="0px"
	 viewBox="0 0 14 13.8" style="enable-background:new 0 0 14 13.8;" xml:space="preserve">
<path d="M7,12.7c1.3-1.1,2.5-2.4,3.5-3.9c0.7-0.9,1-2,1.1-3.1c0-1.3-0.4-2.5-1.3-3.4C9.4,1.5,8.2,1,7,1.1C5.8,1,4.6,1.5,3.7,2.4
	C2.9,3.3,2.4,4.5,2.4,5.8C2.5,6.9,2.9,8,3.6,8.8C4.6,10.3,5.7,11.6,7,12.7z M7,13.8c-0.1,0-0.3,0-0.4-0.1c-0.1,0-0.2-0.1-0.3-0.2
	c-0.5-0.4-1-1-1.6-1.5c-0.6-0.6-1.1-1.2-1.6-1.9C2.6,9.4,2.2,8.7,1.9,8C1.5,7.3,1.4,6.5,1.4,5.8C1.3,4.2,1.9,2.7,3.1,1.6
	C4.1,0.6,5.5,0,7,0c1.5,0,2.9,0.6,3.9,1.6c1.2,1.1,1.8,2.6,1.7,4.2c0,0.8-0.2,1.5-0.5,2.2c-0.3,0.7-0.8,1.4-1.2,2.1
	c-0.5,0.7-1,1.3-1.6,1.9c-0.6,0.6-1.1,1.1-1.6,1.5c-0.1,0.1-0.2,0.2-0.3,0.2C7.3,13.7,7.1,13.8,7,13.8L7,13.8z M7,6.9
	c0.3,0,0.6-0.1,0.9-0.4C8.1,6.3,8.2,6,8.2,5.6c0-0.3-0.1-0.6-0.4-0.9C7.6,4.5,7.3,4.4,7,4.4c-0.3,0-0.6,0.1-0.9,0.4
	C5.9,5,5.8,5.3,5.8,5.6c0,0.3,0.1,0.6,0.4,0.9C6.4,6.8,6.7,6.9,7,6.9L7,6.9z"/>
</svg>
