<?xml version="1.0" encoding="utf-8"?>
<!-- Generator: Adobe Illustrator 24.0.0, SVG Export Plug-In . SVG Version: 6.00 Build 0)  -->
<svg version="1.1" id="Layer_1" xmlns="http://www.w3.org/2000/svg" xmlns:xlink="http://www.w3.org/1999/xlink" x="0px" y="0px"
	 viewBox="0 0 12 12" style="enable-background:new 0 0 12 12;" xml:space="preserve">
<style type="text/css">
	.st0{display:none;}
</style>
<path class="st0" d="M7.4,6.5c-0.5,0.2-1,0.2-1.5-0.1c-0.5-0.2-0.8-0.6-1-1.1S4.7,4.3,5,3.8c0.2-0.5,0.6-0.8,1.1-1s1-0.2,1.5,0.1
	c0.5,0.2,0.8,0.6,1,1.1c0.2,0.5,0.2,1-0.1,1.5C8.3,6,7.9,6.4,7.4,6.5z M3.3,10.5c-0.2,0.1-0.5,0.1-0.7,0s-0.4-0.3-0.5-0.6l-2.3-6.1
	c-0.1-0.2-0.1-0.5,0-0.7c0.1-0.3,0.3-0.5,0.6-0.6l9.8-3.6c0.2-0.1,0.5-0.1,0.7,0c0.2,0.1,0.4,0.3,0.5,0.6l2.2,6.1
	c0.1,0.2,0.1,0.5,0,0.7S13.3,6.7,13,6.8L3.3,10.5z M4.5,9l6.7-2.5c-0.2-0.4-0.1-0.9,0-1.3c0.2-0.4,0.5-0.7,0.9-0.8L11,1.3
	c-0.4,0.2-0.9,0.1-1.3,0C9.3,1.1,9,0.8,8.9,0.4L2.2,2.9c0.2,0.4,0.1,0.9,0,1.3C2,4.5,1.7,4.8,1.3,5l1.1,3.1c0.4-0.2,0.9-0.1,1.3,0
	C4,8.3,4.3,8.6,4.5,9L4.5,9z M12.4,9.3L2.1,13c-0.2,0.1-0.5,0.1-0.7,0S1,12.7,0.9,12.4l-2.5-6.6c0-0.1,0-0.3,0-0.4
	c0.1-0.1,0.2-0.2,0.3-0.2s0.3,0,0.4,0c0.1,0.1,0.2,0.2,0.2,0.3l2.4,6.6L12,8.4c0.1,0,0.3,0,0.4,0c0.1,0.1,0.2,0.2,0.3,0.3
	c0,0.1,0,0.3,0,0.4C12.6,9.1,12.5,9.2,12.4,9.3L12.4,9.3z M2.9,9.6L2.9,9.6z"/>
<path d="M10.4,5.5V4.4H9.1V1.9h-1v2.5H5.6L4,1.9H2.9v2.5H1.6v1H3v1.1H1.6v1H3v2.6h1V7.5h2.5l1.7,2.6h1.1V7.5h1.3v-1H9.1V5.5H10.4z
	 M3.9,3.2L3.9,3.2C4,3.7,4.3,4.1,4.5,4.4H3.9C3.9,4.1,3.9,3.7,3.9,3.2z M3.9,6.5c0-0.4,0-0.7,0-1.1h1.2C5.2,5.6,5.3,5.8,5.4,6
	l0.3,0.6C5.8,6.5,3.9,6.5,3.9,6.5z M6.8,6.1L6.3,5.5h1.8c0,0.4,0,0.7,0,1.1H7C6.9,6.4,6.8,6.2,6.8,6.1z M8.2,8.8
	C8,8.4,7.8,7.9,7.6,7.5h0.6C8.2,7.9,8.2,8.4,8.2,8.8L8.2,8.8z"/>
</svg>
