<svg xmlns="http://www.w3.org/2000/svg" width="14" height="13.755" viewBox="0 0 14 13.755"><path d="M120-814.8v-8.186a1.147,1.147,0,0,1,.2-.661,1.137,1.137,0,0,1,.536-.428l8.478-3.267a.545.545,0,0,1,.544.06.559.559,0,0,1,.253.485v6.164h1.653a1.122,1.122,0,0,1,.344-.824,1.128,1.128,0,0,1,.826-.343,1.117,1.117,0,0,1,.823.343,1.127,1.127,0,0,1,.34.824v5.833a1.123,1.123,0,0,1-.343.824,1.123,1.123,0,0,1-.824.343H121.167a1.123,1.123,0,0,1-.824-.343A1.123,1.123,0,0,1,120-814.8Zm1.167,0h3.694v-4.667a1.124,1.124,0,0,1,.343-.824,1.123,1.123,0,0,1,.824-.343h2.819v-5.308l-7.681,2.956Zm4.861,0h2.819v-1.556a.563.563,0,0,1,.169-.416.569.569,0,0,1,.418-.168.558.558,0,0,1,.415.168.569.569,0,0,1,.165.416v1.556h2.819v-4.667h-6.806ZM125.017-820.382ZM129.431-817.135ZM129.431-817.135Z" transform="translate(-120 827.389)"/></svg>