<?xml version="1.0" encoding="utf-8"?>
<!-- Generator: Adobe Illustrator 24.0.0, SVG Export Plug-In . SVG Version: 6.00 Build 0)  -->
<svg version="1.1" id="Layer_1" xmlns="http://www.w3.org/2000/svg" xmlns:xlink="http://www.w3.org/1999/xlink" x="0px" y="0px"
	 viewBox="0 0 35.4 35.4" style="enable-background:new 0 0 35.4 35.4;" xml:space="preserve">
<style type="text/css">
	.st0{fill:#FF0000;}
	.st1{fill:#FFFFFF;}
</style>
<g>
	<circle class="st0" cx="17.7" cy="17.7" r="17.7"/>
	<path class="st1" d="M27.2,15.2c0-2.3-1.9-4.2-4.2-4.2H12.1c-2.3,0-4.2,1.9-4.2,4.2v5.1c0,2.3,1.9,4.2,4.2,4.2h10.9
		c2.3,0,4.2-1.9,4.2-4.2V15.2z M20.8,18.1l-4.9,2.4c-0.2,0.1-0.8,0-0.8-0.3v-4.9c0-0.2,0.7-0.4,0.8-0.2l4.7,2.5
		C20.8,17.7,21,18,20.8,18.1z"/>
</g>
</svg>
