<?xml version="1.0" encoding="utf-8"?>
<!-- Generator: Adobe Illustrator 24.0.0, SVG Export Plug-In . SVG Version: 6.00 Build 0)  -->
<svg version="1.1" id="Layer_1" xmlns="http://www.w3.org/2000/svg" xmlns:xlink="http://www.w3.org/1999/xlink" x="0px" y="0px"
	 viewBox="0 0 135 135" style="enable-background:new 0 0 135 135;" xml:space="preserve">
<style type="text/css">
	.st0{clip-path:url(#SVGID_2_);}
	.st1{clip-path:url(#SVGID_4_);}
	.st2{fill:#FFFFFF;}
	.st3{fill:#3F0E40;stroke:#3F0E40;stroke-width:4.0815;stroke-miterlimit:10;}
</style>
<g>
	<g>
		<g>
			<defs>
				<circle id="SVGID_1_" cx="67.5" cy="67.7" r="67.5"/>
			</defs>
			<clipPath id="SVGID_2_">
				<use xlink:href="#SVGID_1_"  style="overflow:visible;"/>
			</clipPath>
			<g class="st0">
				<g>
					<defs>
						<rect id="SVGID_3_" x="-5" y="-4.8" width="145" height="145"/>
					</defs>
					<clipPath id="SVGID_4_">
						<use xlink:href="#SVGID_3_"  style="overflow:visible;"/>
					</clipPath>
					<g class="st1">
					</g>
				</g>
			</g>
		</g>
	</g>
	<g>
		<g>
			<path class="st2" d="M67.5,32.8c11.3,0,12.7,0,17.2,0.2c4.1,0.2,6.4,0.9,7.9,1.5c2,0.8,3.4,1.7,4.9,3.2s2.4,2.9,3.2,4.9
				c0.6,1.5,1.3,3.7,1.5,7.9c0.2,4.5,0.2,5.8,0.2,17.2s0,12.7-0.2,17.2c-0.2,4.1-0.9,6.4-1.5,7.9c-0.8,2-1.7,3.4-3.2,4.9
				s-2.9,2.4-4.9,3.2c-1.5,0.6-3.7,1.3-7.9,1.5c-4.5,0.2-5.8,0.2-17.2,0.2c-11.3,0-12.7,0-17.2-0.2c-4.1-0.2-6.4-0.9-7.9-1.5
				c-2-0.8-3.4-1.7-4.9-3.2s-2.4-2.9-3.2-4.9c-0.6-1.5-1.3-3.7-1.5-7.9c-0.2-4.5-0.2-5.8-0.2-17.2s0-12.7,0.2-17.2
				c0.2-4.1,0.9-6.4,1.5-7.9c0.8-2,1.7-3.4,3.2-4.9s2.9-2.4,4.9-3.2c1.5-0.6,3.7-1.3,7.9-1.5C54.8,32.9,56.2,32.8,67.5,32.8
				 M67.5,25.2c-11.5,0-13,0-17.5,0.3c-4.5,0.2-7.6,0.9-10.3,2c-2.8,1.1-5.2,2.5-7.5,4.9c-2.4,2.4-3.8,4.7-4.9,7.5
				c-1.1,2.7-1.8,5.8-2,10.3s-0.3,6-0.3,17.5s0,13,0.3,17.5c0.2,4.5,0.9,7.6,2,10.3c1.1,2.8,2.5,5.2,4.9,7.5
				c2.4,2.4,4.7,3.8,7.5,4.9c2.7,1.1,5.8,1.8,10.3,2s6,0.3,17.5,0.3s13,0,17.5-0.3c4.5-0.2,7.6-0.9,10.3-2c2.8-1.1,5.2-2.5,7.5-4.9
				c2.4-2.4,3.8-4.7,4.9-7.5c1.1-2.7,1.8-5.8,2-10.3s0.3-6,0.3-17.5s0-13-0.3-17.5c-0.2-4.5-0.9-7.6-2-10.3
				c-1.1-2.8-2.5-5.2-4.9-7.5c-2.4-2.4-4.7-3.8-7.5-4.9c-2.7-1.1-5.8-1.8-10.3-2C80.5,25.2,79,25.2,67.5,25.2L67.5,25.2z"/>
			<path class="st2" d="M67.5,45.8c-12.1,0-21.8,9.8-21.8,21.8s9.8,21.8,21.8,21.8c12.1,0,21.8-9.8,21.8-21.8S79.6,45.8,67.5,45.8z
				 M67.5,81.8c-7.8,0-14.2-6.3-14.2-14.2s6.3-14.2,14.2-14.2s14.2,6.3,14.2,14.2S75.3,81.8,67.5,81.8z"/>
			<circle class="st2" cx="90.2" cy="45" r="5.1"/>
		</g>
	</g>
</g>
<path class="st3" d="M12,10.2c0.3,0,0.6,0,0.8,0c10.5,0,21.1,0,31.6,0c0.5,0,0.9,0.2,1.2,0.6c4.4,6.4,8.7,12.8,13.1,19.1
	c5,7.2,9.9,14.5,14.9,21.7c0.1,0.1,0.1,0.2,0.3,0.3c1.2-1.4,2.4-2.8,3.6-4.2c7.3-8.4,14.5-16.9,21.8-25.3c3.4-3.9,6.8-7.9,10.1-11.8
	c0.3-0.3,0.5-0.5,0.9-0.5c2.9,0,5.7,0,8.6,0c0.2,0,0.4,0,0.7,0c-13.8,16.1-27.6,32.1-41.4,48.1c15,21.8,30,43.6,45,65.5
	c-0.3,0-0.5,0-0.7,0c-10.6,0-21.1,0-31.7,0c-0.5,0-0.8-0.2-1.1-0.6c-6.1-8.9-12.2-17.7-18.2-26.6c-3.8-5.5-7.6-11.1-11.4-16.6
	c-0.1-0.1-0.2-0.2-0.3-0.3c-1.4,1.6-2.7,3.1-4,4.7c-8.3,9.6-16.6,19.2-24.8,28.9c-2.9,3.3-5.8,6.7-8.6,10.1
	c-0.3,0.4-0.6,0.5-1.1,0.5c-3,0-6,0-9.2,0C26.5,107,40.9,90.2,55.4,73.4C40.9,52.3,26.5,31.3,12,10.2z M25.4,17.6
	c0.1,0.2,0.1,0.2,0.2,0.3c7.1,10.2,14.3,20.4,21.4,30.6c8.1,11.6,16.3,23.3,24.4,34.9c7.7,11,15.3,21.9,23,32.9
	c0.3,0.4,0.5,0.5,1,0.5c4.6,0,9.1,0,13.7,0c0.2,0,0.4,0,0.7,0c-0.2-0.3-0.3-0.4-0.4-0.6c-6.6-9.4-13.1-18.8-19.7-28.1
	c-6.3-9-12.5-18-18.8-27c-5-7.1-9.9-14.2-14.9-21.3c-5-7.2-10.1-14.4-15.1-21.6c-0.3-0.4-0.6-0.6-1.1-0.6c-3.4,0-6.9,0-10.3,0
	C28.1,17.6,26.8,17.6,25.4,17.6z"/>
</svg>
